HIERARCHY
ROOT SpineBase
{
  OFFSET 0.000000 0.000000 0.000000
  CHANNELS 6 Xposition Yposition Zposition Zrotation Xrotation Yrotation
  JOINT SpineMid
  {
    OFFSET 0.000000 32.405052 -0.000000
    CHANNELS 3 Zrotation Xrotation Yrotation
    JOINT SpineShoulder
    {
      OFFSET -0.167324 23.950581 -0.768812
      CHANNELS 3 Zrotation Xrotation Yrotation
      JOINT Neck
      {
        OFFSET -0.122872 7.892571 -0.572689
        CHANNELS 3 Zrotation Xrotation Yrotation
        JOINT Head
        {
          OFFSET -2.626890 8.713487 5.497206
          CHANNELS 3 Zrotation Xrotation Yrotation
          End Site
          {
            OFFSET 0 0 0
          }
        }
      }
      JOINT ShoulderLeft
      {
        OFFSET -15.459099 -9.041147 -13.360834
        CHANNELS 3 Zrotation Xrotation Yrotation
        JOINT ElbowLeft
        {
          OFFSET 6.420270 -28.570583 -3.375556
          CHANNELS 3 Zrotation Xrotation Yrotation
          JOINT WristLeft
          {
            OFFSET -3.341638 -5.906217 27.137918
            CHANNELS 3 Zrotation Xrotation Yrotation
            JOINT HandLeft
            {
              OFFSET -1.047741 -2.035268 9.448787
              CHANNELS 3 Zrotation Xrotation Yrotation
              JOINT HandTipLeft
              {
                OFFSET -0.508517 0.410603 0.094653
                CHANNELS 3 Zrotation Xrotation Yrotation
                End Site
                {
                  OFFSET 0 0 0
                }
              }
              JOINT ThumbLeft
              {
                OFFSET -0.194870 0.347065 -2.537387
                CHANNELS 3 Zrotation Xrotation Yrotation
                End Site
                {
                  OFFSET 0 0 0
                }
              }
            }
          }
        }
      }
      JOINT ShoulderRight
      {
        OFFSET -0.650224 -5.581299 -12.912526
        CHANNELS 3 Zrotation Xrotation Yrotation
        JOINT ElbowRight
        {
          OFFSET -7.954230 -23.925992 -4.373519
          CHANNELS 3 Zrotation Xrotation Yrotation
          JOINT WristRight
          {
            OFFSET -6.233472 -20.824615 7.210378
            CHANNELS 3 Zrotation Xrotation Yrotation
            JOINT HandRight
            {
              OFFSET -0.936863 -9.315710 5.024559
              CHANNELS 3 Zrotation Xrotation Yrotation
              JOINT HandTipRight
              {
                OFFSET -5.381930 -7.016092 5.989928
                CHANNELS 3 Zrotation Xrotation Yrotation
                End Site
                {
                  OFFSET 0 0 0
                }
              }
              JOINT ThumbRight
              {
                OFFSET 5.385980 -2.849245 -4.549243
                CHANNELS 3 Zrotation Xrotation Yrotation
                End Site
                {
                  OFFSET 0 0 0
                }
              }
            }
          }
        }
      }
    }
  }
  JOINT HipLeft
  {
    OFFSET -6.526486 -0.637010 0.829499
    CHANNELS 3 Zrotation Xrotation Yrotation
    JOINT KneeLeft
    {
      OFFSET 19.614532 -38.873169 3.470416
      CHANNELS 3 Zrotation Xrotation Yrotation
      JOINT AnkleLeft
      {
        OFFSET 7.633359 -31.257137 3.688933
        CHANNELS 3 Zrotation Xrotation Yrotation
        JOINT FootLeft
        {
          OFFSET -5.303250 -4.204606 -8.579812
          CHANNELS 3 Zrotation Xrotation Yrotation
          End Site
          {
            OFFSET 0 0 0
          }
        }
      }
    }
  }
  JOINT HipRight
  {
    OFFSET 5.175494 2.227656 -8.028574
    CHANNELS 3 Zrotation Xrotation Yrotation
    JOINT KneeRight
    {
      OFFSET -2.603412 -39.576234 3.401809
      CHANNELS 3 Zrotation Xrotation Yrotation
      JOINT AnkleRight
      {
        OFFSET 5.748368 -35.809349 1.527085
        CHANNELS 3 Zrotation Xrotation Yrotation
        JOINT FootRight
        {
          OFFSET -5.979332 -5.171468 -1.464883
          CHANNELS 3 Zrotation Xrotation Yrotation
          End Site
          {
            OFFSET 0 0 0
          }
        }
      }
    }
  }
}
MOTION
Frames: 6
Frame Time: 0.033333
57.187889 79.153381 318.989820 -0.000000 -0.000000 37.124709 0.000000 0.000000 -37.124709 -0.000000 0.000000 0.000000 -0.000000 0.000000 0.000000 0.000000 0.000000 0.000000 -0.000000 0.000000 0.000000 -0.000000 0.000000 0.000000 -0.000000 0.000000 0.000000 -0.000000 0.000000 0.000000 0.000000 0.000000 0.000000 0.000000 0.000000 0.000000 -0.000000 0.000000 0.000000 -0.000000 0.000000 0.000000 -0.000000 0.000000 0.000000 -0.000000 0.000000 0.000000 0.000000 0.000000 0.000000 0.000000 0.000000 0.000000 0.000000 0.000000 -37.124709 -0.000000 0.000000 0.000000 -0.000000 0.000000 0.000000 0.000000 0.000000 0.000000 0.000000 0.000000 -37.124709 -0.000000 0.000000 0.000000 -0.000000 0.000000 0.000000 0.000000 0.000000 0.000000
57.139677 79.201305 319.000873 -0.005328 0.006296 37.031751 0.000462 -0.008235 -37.031750 -0.000000 0.000000 0.000000 -0.000000 0.000000 0.000000 0.000000 0.000000 0.000000 -0.000000 0.000000 0.000000 -0.000000 0.000000 0.000000 -0.000000 0.000000 0.000000 -0.000000 0.000000 0.000000 0.000000 0.000000 0.000000 0.000000 0.000000 0.000000 -0.000000 0.000000 0.000000 0.249814 0.792439 -0.152903 -0.197532 -1.607286 0.257916 0.219993 2.441276 -1.152674 0.000000 0.000000 0.000000 0.000000 0.000000 0.000000 0.000462 -0.008235 -37.031750 -0.000000 0.000000 0.000000 -0.000000 0.000000 0.000000 0.000000 0.000000 0.000000 0.000462 -0.008235 -37.031750 -0.000000 0.000000 0.000000 -2.321746 0.156096 0.469258 0.000000 0.000000 0.000000
57.095065 79.238845 319.011778 -0.009991 0.012123 36.954879 0.000696 -0.015694 -36.954878 -0.000000 0.000000 0.000000 -0.000000 0.000000 0.000000 0.000000 0.000000 0.000000 -0.000000 0.000000 0.000000 -0.000000 0.000000 0.000000 -0.000000 0.000000 0.000000 -0.000000 0.000000 0.000000 0.000000 0.000000 0.000000 0.000000 0.000000 0.000000 -0.000000 0.000000 0.000000 0.496816 1.493164 -0.283075 -0.370135 -2.943735 0.479841 0.476697 4.441087 -2.090983 0.000000 0.000000 0.000000 0.000000 0.000000 0.000000 0.000696 -0.015694 -36.954878 -0.000000 0.000000 0.000000 -0.000000 0.000000 0.000000 0.000000 0.000000 0.000000 0.000696 -0.015694 -36.954878 -0.000000 0.000000 0.000000 -4.057497 0.402273 0.670803 0.000000 0.000000 0.000000
57.054052 79.266002 319.022535 -0.013986 0.017476 36.894162 0.000694 -0.022373 -36.894160 -0.000000 0.000000 0.000000 -0.000000 0.000000 0.000000 0.000000 0.000000 0.000000 -0.000000 0.000000 0.000000 -0.000000 0.000000 0.000000 -0.000000 0.000000 0.000000 -0.000000 0.000000 0.000000 0.000000 0.000000 0.000000 0.000000 0.000000 0.000000 -0.000000 0.000000 0.000000 0.737486 2.090252 -0.387038 -0.518862 -4.005110 0.664740 0.756315 6.015526 -2.817770 0.000000 0.000000 0.000000 0.000000 0.000000 0.000000 -0.449562 0.930634 -36.724869 0.930788 -0.494561 -0.161705 -0.252919 -0.360471 0.973482 0.000000 0.000000 0.000000 0.000694 -0.022373 -36.894160 -0.000000 0.000000 0.000000 -5.202272 0.751636 0.606702 0.000000 0.000000 0.000000
57.016638 79.282776 319.033143 -0.017309 0.022352 36.849664 0.000446 -0.028267 -36.849660 -0.000000 0.000000 0.000000 -0.643620 0.197188 0.466890 0.000000 0.000000 0.000000 -0.000000 0.000000 0.000000 -0.000000 0.000000 0.000000 -0.000000 0.000000 0.000000 -0.000000 0.000000 0.000000 0.000000 0.000000 0.000000 0.000000 0.000000 0.000000 -0.000000 0.000000 0.000000 0.968325 2.573190 -0.461586 -0.643932 -4.787086 0.811496 1.048394 7.178702 -3.332781 0.000000 0.000000 0.000000 0.000000 0.000000 0.000000 -0.567388 1.169272 -36.635768 1.170315 -0.622020 -0.201885 -0.269873 -0.459363 1.134887 0.000000 0.000000 0.000000 0.000446 -0.028267 -36.849660 -0.000000 0.000000 0.000000 -5.757937 1.208386 0.278897 0.000000 0.000000 0.000000
56.982824 79.289166 319.043602 -0.019958 0.026748 36.821439 -0.000054 -0.033373 -36.821434 -0.000000 0.000000 0.000000 -0.702083 0.149426 0.489401 0.000000 0.000000 0.000000 -0.845235 -0.102930 0.076110 0.845372 0.101796 -0.077620 -0.000000 0.000000 0.000000 -0.000000 0.000000 0.000000 0.000000 0.000000 0.000000 0.000000 0.000000 0.000000 -0.000000 0.000000 0.000000 1.186008 2.933269 -0.503943 -0.744774 -5.285693 0.919073 1.345522 7.941747 -3.632897 0.000000 0.000000 0.000000 0.000000 0.000000 0.000000 -0.669486 1.374469 -36.568856 1.376516 -0.731697 -0.235953 -0.253741 -0.546685 1.214489 0.000000 0.000000 0.000000 -0.000054 -0.033373 -36.821434 -0.000000 0.000000 0.000000 -5.729290 1.767977 -0.312176 0.000000 0.000000 0.000000
